<?xml version="1.0" standalone="no"?>
<!DOCTYPE svg PUBLIC "-//W3C//DTD SVG 20010904//EN"
 "http://www.w3.org/TR/2001/REC-SVG-20010904/DTD/svg10.dtd">
<svg version="1.0" xmlns="http://www.w3.org/2000/svg"
 width="850.000000pt" height="257.000000pt" viewBox="0 0 850.000000 257.000000"
 preserveAspectRatio="xMidYMid meet">
<metadata>
Created by potrace 1.16, written by Peter Selinger 2001-2019
</metadata>
<g transform="translate(0.000000,257.000000) scale(0.100000,-0.100000)"
fill="#000000" stroke="none">
<path d="M20 1280 l0 -1280 1425 0 1425 0 -2 1278 -3 1277 -1422 3 -1423 2 0
-1280z m1252 958 c17 -13 21 -28 19 -59 0 -9 -27 -43 -59 -76 -33 -32 -62 -72
-66 -87 -5 -22 11 -73 78 -240 47 -116 148 -364 223 -552 76 -187 142 -342
146 -345 12 -6 427 1080 427 1119 0 27 -12 46 -65 102 -68 72 -78 99 -48 132
15 16 36 18 263 18 178 0 249 -3 258 -12 7 -7 12 -29 12 -49 0 -30 -7 -44 -36
-71 -85 -79 -88 -86 -439 -923 -186 -443 -310 -736 -331 -781 -29 -62 -81
-101 -146 -110 -97 -13 -166 24 -213 115 -21 42 -390 838 -612 1321 -113 246
-125 267 -197 348 -48 54 -56 69 -56 102 0 27 6 42 18 49 27 16 804 15 824 -1z"/>
<path d="M4780 1900 l0 -70 75 0 75 0 0 70 0 70 -75 0 -75 0 0 -70z"/>
<path d="M7440 1280 l0 -690 80 0 80 0 0 153 0 152 69 75 68 75 224 -228 224
-228 86 3 86 3 -184 195 c-101 107 -218 232 -260 277 l-75 83 211 219 c116
120 211 221 211 225 0 3 -40 6 -89 6 l-89 0 -239 -252 -238 -251 -3 436 -2
437 -80 0 -80 0 0 -690z"/>
<path d="M3288 1933 c5 -10 141 -316 303 -681 l294 -662 68 2 68 3 303 678
304 678 -85 -3 -85 -3 -244 -555 c-134 -305 -247 -563 -251 -573 -6 -13 -53
84 -177 365 -93 211 -207 470 -254 576 l-84 192 -85 0 c-76 0 -83 -2 -75 -17z"/>
<path d="M6665 1610 c-224 -48 -384 -217 -416 -440 -37 -254 101 -484 339
-565 209 -71 460 -22 575 112 18 20 17 21 -27 58 l-45 37 -45 -32 c-127 -87
-311 -98 -453 -28 -97 47 -167 142 -187 251 l-7 37 431 0 430 0 0 58 c0 233
-122 413 -335 491 -66 25 -196 35 -260 21z m247 -162 c102 -47 186 -155 201
-260 l6 -38 -361 0 -360 0 6 35 c17 91 91 196 173 246 91 57 233 64 335 17z"/>
<path d="M4780 1095 l0 -505 75 0 75 0 0 505 0 505 -75 0 -75 0 0 -505z"/>
<path d="M5100 1593 c0 -4 100 -232 222 -506 l222 -498 64 3 63 3 200 450
c111 248 211 474 224 503 l24 52 -78 0 -77 0 -17 -34 c-9 -19 -86 -196 -173
-393 -86 -197 -159 -361 -163 -366 -4 -4 -86 172 -182 390 l-176 398 -76 3
c-43 2 -77 -1 -77 -5z"/>
</g>
</svg>
